<?xml version="1.0" encoding="UTF-8" standalone="no"?>
<!DOCTYPE svg PUBLIC "-//W3C//DTD SVG 1.1//EN" "http://www.w3.org/Graphics/SVG/1.1/DTD/svg11.dtd">
<svg xmlns="http://www.w3.org/2000/svg" version="1.1" viewBox="0.00 0.00 508.00 64.00">
<g stroke-width="2.00" fill="none" stroke-linecap="butt">
<path stroke="#dadad9" vector-effect="non-scaling-stroke" d="
  M 508.00 2.54
  L 497.83 2.52
  A 3.99 3.99 0.0 0 0 494.84 3.87
  L 481.88 18.66
  Q 481.45 19.16 481.15 18.57
  L 473.92 4.06
  A 2.86 2.86 0.0 0 0 471.24 2.48
  Q 466.63 2.67 462.03 2.12
  C 457.13 1.53 451.27 2.49 447.32 2.49
  Q 432.00 2.49 417.06 2.51
  A 2.75 2.74 -84.0 0 0 414.38 4.69
  L 402.95 59.76
  A 1.86 1.86 0.0 0 0 404.77 62.00
  L 460.31 62.00
  A 3.54 3.53 21.2 0 0 462.92 60.85
  L 476.53 45.92
  A 0.38 0.38 0.0 0 1 477.15 46.00
  L 484.36 60.50
  A 2.73 2.72 -13.2 0 0 486.80 62.01
  L 499.60 61.99
  A 1.86 1.85 -13.2 0 0 501.26 59.32
  L 488.69 33.79
  Q 488.48 33.38 488.79 33.04
  L 508.00 11.36"
/>
<path stroke="#80cff1" vector-effect="non-scaling-stroke" d="
  M 29.22 3.60
  A 2.16 2.16 0.0 0 0 27.11 1.00
  L 15.88 1.00
  A 2.16 2.16 0.0 0 0 13.76 2.72
  L 2.02 59.40
  A 2.16 2.16 0.0 0 0 4.13 62.00
  L 15.36 62.00
  A 2.16 2.16 0.0 0 0 17.48 60.28
  L 29.22 3.60"
/>
<path stroke="#dadad9" vector-effect="non-scaling-stroke" d="
  M 307.95 2.26
  C 292.11 6.63 287.95 21.87 285.61 36.15
  Q 282.82 53.25 294.56 59.65
  Q 303.06 64.28 313.99 62.24
  C 333.29 58.63 337.47 40.70 339.67 23.74
  Q 340.93 13.99 334.96 7.77
  C 328.04 0.57 317.23 -0.30 307.95 2.26"
/>
<path stroke="#80cff1" vector-effect="non-scaling-stroke" d="
  M 64.24 32.05
  L 49.51 3.21
  A 3.13 3.13 0.0 0 0 46.72 1.50
  L 39.36 1.50
  A 2.69 2.68 6.0 0 0 36.73 3.63
  L 24.96 59.49
  Q 24.43 62.01 27.00 62.00
  L 37.99 62.00
  A 2.74 2.73 5.8 0 0 40.67 59.82
  L 46.69 31.14
  A 0.25 0.24 37.4 0 1 47.15 31.08
  L 61.86 60.08
  A 3.51 3.50 -13.3 0 0 64.99 62.00
  L 72.07 62.00
  A 2.87 2.87 0.0 0 0 74.88 59.72
  L 86.65 3.79
  A 1.90 1.89 -84.1 0 0 84.80 1.50
  L 73.76 1.50
  A 2.96 2.95 5.9 0 0 70.86 3.85
  L 64.95 31.96
  Q 64.73 33.01 64.24 32.05"
/>
<path stroke="#dadad9" vector-effect="non-scaling-stroke" d="
  M 265.49 15.52
  C 270.13 16.06 271.33 19.50 272.12 23.57
  A 1.15 1.15 0.0 0 0 273.25 24.50
  L 284.97 24.50
  A 1.88 1.87 -83.1 0 0 286.79 23.07
  C 288.89 14.47 282.42 6.61 274.64 3.65
  Q 269.70 1.77 263.20 1.89
  C 246.73 2.18 238.20 12.47 234.58 27.36
  C 232.28 36.87 229.38 47.77 236.68 55.81
  C 242.99 62.75 252.53 63.81 261.49 62.08
  C 271.98 60.05 280.75 52.25 283.01 41.72
  A 1.42 1.42 0.0 0 0 281.61 40.00
  L 270.34 40.03
  A 2.27 2.24 15.4 0 0 268.44 41.09
  C 267.16 43.15 265.76 45.54 263.76 46.91
  C 258.54 50.47 247.11 50.77 247.22 42.01
  Q 247.27 38.08 248.74 31.78
  C 251.03 21.93 253.30 14.09 265.49 15.52"
/>
<path stroke="#dadad9" vector-effect="non-scaling-stroke" d="
  M 358.76 32.24
  L 362.66 45.55
  A 2.74 2.73 81.7 0 0 365.28 47.51
  L 373.22 47.50
  Q 373.70 47.50 374.07 47.20
  Q 375.70 45.90 377.39 43.40
  Q 381.36 37.52 385.35 31.74
  A 0.13 0.13 0.0 0 1 385.59 31.84
  L 379.72 59.91
  A 1.74 1.74 0.0 0 0 381.42 62.00
  L 392.50 62.00
  A 2.82 2.81 -84.1 0 0 395.25 59.76
  L 406.83 4.03
  A 1.92 1.91 -84.2 0 0 404.96 1.73
  Q 399.01 1.73 392.49 1.92
  Q 389.99 1.99 388.63 3.90
  Q 380.30 15.66 372.05 27.35
  A 0.34 0.34 0.0 0 1 371.45 27.26
  L 364.42 3.87
  A 2.99 2.98 -8.4 0 0 361.56 1.75
  L 351.27 1.75
  A 2.73 2.72 5.8 0 0 348.60 3.92
  L 337.08 59.31
  Q 336.53 62.00 339.27 62.00
  L 349.49 62.00
  A 3.12 3.12 0.0 0 0 352.54 59.52
  L 358.23 32.26
  Q 358.45 31.19 358.76 32.24"
/>
<path stroke="#80cff1" vector-effect="non-scaling-stroke" d="
  M 195.97 41.50
  L 203.51 41.50
  Q 204.05 41.50 204.21 42.02
  L 209.59 59.98
  A 2.83 2.82 -8.3 0 0 212.30 62.00
  L 223.25 62.00
  A 2.27 2.26 -8.5 0 0 225.42 59.08
  L 219.38 39.42
  Q 219.21 38.88 219.70 38.59
  C 221.16 37.74 222.96 36.93 224.08 36.14
  C 231.34 31.00 235.69 20.08 231.51 11.64
  C 228.38 5.33 220.88 2.53 213.99 2.39
  Q 202.25 2.17 190.08 2.27
  A 2.49 2.48 -84.3 0 0 187.66 4.25
  L 175.91 60.01
  A 1.66 1.65 6.0 0 0 177.53 62.00
  L 188.89 62.00
  A 2.70 2.69 5.9 0 0 191.53 59.86
  L 195.31 42.03
  Q 195.42 41.50 195.97 41.50"
/>
<path stroke="#80cff1" vector-effect="non-scaling-stroke" d="
  M 104.19 16.76
  L 95.28 59.25
  Q 94.70 62.00 97.51 62.00
  L 107.75 62.00
  A 2.96 2.96 0.0 0 0 110.65 59.64
  L 119.66 16.73
  Q 119.76 16.25 120.26 16.25
  L 134.86 16.25
  A 2.32 2.32 0.0 0 0 137.13 14.41
  L 139.18 4.81
  A 1.71 1.70 5.9 0 0 137.51 2.76
  L 92.66 2.75
  A 2.96 2.95 -83.7 0 0 89.76 5.08
  L 87.78 14.19
  A 1.70 1.70 0.0 0 0 89.44 16.25
  L 103.77 16.25
  Q 104.30 16.25 104.19 16.76"
/>
<path stroke="#80cff1" vector-effect="non-scaling-stroke" d="
  M 147.53 47.97
  L 149.17 39.74
  Q 149.27 39.25 149.76 39.25
  L 172.27 39.25
  A 3.19 3.19 0.0 0 0 175.39 36.71
  L 177.25 27.82
  A 1.72 1.71 6.0 0 0 175.57 25.75
  L 152.67 25.75
  Q 152.08 25.75 152.20 25.17
  L 153.82 17.29
  Q 153.93 16.75 154.47 16.75
  L 178.74 16.75
  A 3.14 3.13 5.9 0 0 181.81 14.26
  L 183.70 5.29
  A 1.70 1.69 5.9 0 0 182.04 3.25
  L 143.98 3.25
  A 2.84 2.84 0.0 0 0 141.20 5.51
  L 129.91 60.01
  A 1.66 1.65 -84.2 0 0 131.53 62.00
  L 170.27 62.00
  A 2.86 2.85 5.8 0 0 173.07 59.73
  L 174.97 50.55
  A 1.70 1.70 0.0 0 0 173.31 48.50
  L 147.96 48.50
  Q 147.42 48.50 147.53 47.97"
/>
<path stroke="#dadad9" vector-effect="non-scaling-stroke" d="
  M 306.96 48.99
  C 319.36 50.90 322.53 37.85 323.86 28.24
  C 324.79 21.47 325.12 14.63 315.76 14.76
  Q 306.38 14.88 303.43 24.91
  C 301.46 31.64 296.34 47.37 306.96 48.99"
/>
<path stroke="#71719b" vector-effect="non-scaling-stroke" d="
  M 449.40 25.26
  A 1.49 1.48 6.0 0 1 450.86 27.05
  L 448.87 36.63
  A 2.99 2.98 -84.0 0 1 445.95 39.00
  L 423.21 39.00
  A 0.84 0.84 0.0 0 0 422.39 39.67
  L 420.78 47.75
  Q 420.66 48.31 421.24 48.32
  L 446.66 48.43
  A 1.86 1.85 6.1 0 1 448.47 50.66
  L 447.46 55.48
  Q 447.29 56.31 447.86 55.68
  L 469.76 31.50
  Q 469.96 31.27 469.82 31.00
  L 457.63 6.23
  Q 457.20 5.35 457.00 6.31
  L 455.37 13.87
  A 2.71 2.71 0.0 0 1 452.72 16.01
  L 427.72 16.01
  A 0.59 0.58 -83.9 0 0 427.15 16.48
  L 425.49 24.69
  Q 425.37 25.24 425.94 25.24
  L 449.40 25.26"
/>
<path stroke="#80cff1" vector-effect="non-scaling-stroke" d="
  M 216.51 23.52
  C 221.44 13.44 205.81 15.35 201.27 15.56
  Q 200.82 15.58 200.73 16.02
  L 198.38 27.33
  Q 198.25 27.94 198.87 27.96
  C 204.37 28.16 213.58 29.54 216.51 23.52"
/>
</g>
<path fill="#ffffff" d="
  M 0.00 0.00
  L 508.00 0.00
  L 508.00 2.54
  L 497.83 2.52
  A 3.99 3.99 0.0 0 0 494.84 3.87
  L 481.88 18.66
  Q 481.45 19.16 481.15 18.57
  L 473.92 4.06
  A 2.86 2.86 0.0 0 0 471.24 2.48
  Q 466.63 2.67 462.03 2.12
  C 457.13 1.53 451.27 2.49 447.32 2.49
  Q 432.00 2.49 417.06 2.51
  A 2.75 2.74 -84.0 0 0 414.38 4.69
  L 402.95 59.76
  A 1.86 1.86 0.0 0 0 404.77 62.00
  L 460.31 62.00
  A 3.54 3.53 21.2 0 0 462.92 60.85
  L 476.53 45.92
  A 0.38 0.38 0.0 0 1 477.15 46.00
  L 484.36 60.50
  A 2.73 2.72 -13.2 0 0 486.80 62.01
  L 499.60 61.99
  A 1.86 1.85 -13.2 0 0 501.26 59.32
  L 488.69 33.79
  Q 488.48 33.38 488.79 33.04
  L 508.00 11.36
  L 508.00 64.00
  L 0.00 64.00
  L 0.00 0.00
  Z
  M 29.22 3.60
  A 2.16 2.16 0.0 0 0 27.11 1.00
  L 15.88 1.00
  A 2.16 2.16 0.0 0 0 13.76 2.72
  L 2.02 59.40
  A 2.16 2.16 0.0 0 0 4.13 62.00
  L 15.36 62.00
  A 2.16 2.16 0.0 0 0 17.48 60.28
  L 29.22 3.60
  Z
  M 307.95 2.26
  C 292.11 6.63 287.95 21.87 285.61 36.15
  Q 282.82 53.25 294.56 59.65
  Q 303.06 64.28 313.99 62.24
  C 333.29 58.63 337.47 40.70 339.67 23.74
  Q 340.93 13.99 334.96 7.77
  C 328.04 0.57 317.23 -0.30 307.95 2.26
  Z
  M 64.24 32.05
  L 49.51 3.21
  A 3.13 3.13 0.0 0 0 46.72 1.50
  L 39.36 1.50
  A 2.69 2.68 6.0 0 0 36.73 3.63
  L 24.96 59.49
  Q 24.43 62.01 27.00 62.00
  L 37.99 62.00
  A 2.74 2.73 5.8 0 0 40.67 59.82
  L 46.69 31.14
  A 0.25 0.24 37.4 0 1 47.15 31.08
  L 61.86 60.08
  A 3.51 3.50 -13.3 0 0 64.99 62.00
  L 72.07 62.00
  A 2.87 2.87 0.0 0 0 74.88 59.72
  L 86.65 3.79
  A 1.90 1.89 -84.1 0 0 84.80 1.50
  L 73.76 1.50
  A 2.96 2.95 5.9 0 0 70.86 3.85
  L 64.95 31.96
  Q 64.73 33.01 64.24 32.05
  Z
  M 265.49 15.52
  C 270.13 16.06 271.33 19.50 272.12 23.57
  A 1.15 1.15 0.0 0 0 273.25 24.50
  L 284.97 24.50
  A 1.88 1.87 -83.1 0 0 286.79 23.07
  C 288.89 14.47 282.42 6.61 274.64 3.65
  Q 269.70 1.77 263.20 1.89
  C 246.73 2.18 238.20 12.47 234.58 27.36
  C 232.28 36.87 229.38 47.77 236.68 55.81
  C 242.99 62.75 252.53 63.81 261.49 62.08
  C 271.98 60.05 280.75 52.25 283.01 41.72
  A 1.42 1.42 0.0 0 0 281.61 40.00
  L 270.34 40.03
  A 2.27 2.24 15.4 0 0 268.44 41.09
  C 267.16 43.15 265.76 45.54 263.76 46.91
  C 258.54 50.47 247.11 50.77 247.22 42.01
  Q 247.27 38.08 248.74 31.78
  C 251.03 21.93 253.30 14.09 265.49 15.52
  Z
  M 358.76 32.24
  L 362.66 45.55
  A 2.74 2.73 81.7 0 0 365.28 47.51
  L 373.22 47.50
  Q 373.70 47.50 374.07 47.20
  Q 375.70 45.90 377.39 43.40
  Q 381.36 37.52 385.35 31.74
  A 0.13 0.13 0.0 0 1 385.59 31.84
  L 379.72 59.91
  A 1.74 1.74 0.0 0 0 381.42 62.00
  L 392.50 62.00
  A 2.82 2.81 -84.1 0 0 395.25 59.76
  L 406.83 4.03
  A 1.92 1.91 -84.2 0 0 404.96 1.73
  Q 399.01 1.73 392.49 1.92
  Q 389.99 1.99 388.63 3.90
  Q 380.30 15.66 372.05 27.35
  A 0.34 0.34 0.0 0 1 371.45 27.26
  L 364.42 3.87
  A 2.99 2.98 -8.4 0 0 361.56 1.75
  L 351.27 1.75
  A 2.73 2.72 5.8 0 0 348.60 3.92
  L 337.08 59.31
  Q 336.53 62.00 339.27 62.00
  L 349.49 62.00
  A 3.12 3.12 0.0 0 0 352.54 59.52
  L 358.23 32.26
  Q 358.45 31.19 358.76 32.24
  Z
  M 195.97 41.50
  L 203.51 41.50
  Q 204.05 41.50 204.21 42.02
  L 209.59 59.98
  A 2.83 2.82 -8.3 0 0 212.30 62.00
  L 223.25 62.00
  A 2.27 2.26 -8.5 0 0 225.42 59.08
  L 219.38 39.42
  Q 219.21 38.88 219.70 38.59
  C 221.16 37.74 222.96 36.93 224.08 36.14
  C 231.34 31.00 235.69 20.08 231.51 11.64
  C 228.38 5.33 220.88 2.53 213.99 2.39
  Q 202.25 2.17 190.08 2.27
  A 2.49 2.48 -84.3 0 0 187.66 4.25
  L 175.91 60.01
  A 1.66 1.65 6.0 0 0 177.53 62.00
  L 188.89 62.00
  A 2.70 2.69 5.9 0 0 191.53 59.86
  L 195.31 42.03
  Q 195.42 41.50 195.97 41.50
  Z
  M 104.19 16.76
  L 95.28 59.25
  Q 94.70 62.00 97.51 62.00
  L 107.75 62.00
  A 2.96 2.96 0.0 0 0 110.65 59.64
  L 119.66 16.73
  Q 119.76 16.25 120.26 16.25
  L 134.86 16.25
  A 2.32 2.32 0.0 0 0 137.13 14.41
  L 139.18 4.81
  A 1.71 1.70 5.9 0 0 137.51 2.76
  L 92.66 2.75
  A 2.96 2.95 -83.7 0 0 89.76 5.08
  L 87.78 14.19
  A 1.70 1.70 0.0 0 0 89.44 16.25
  L 103.77 16.25
  Q 104.30 16.25 104.19 16.76
  Z
  M 147.53 47.97
  L 149.17 39.74
  Q 149.27 39.25 149.76 39.25
  L 172.27 39.25
  A 3.19 3.19 0.0 0 0 175.39 36.71
  L 177.25 27.82
  A 1.72 1.71 6.0 0 0 175.57 25.75
  L 152.67 25.75
  Q 152.08 25.75 152.20 25.17
  L 153.82 17.29
  Q 153.93 16.75 154.47 16.75
  L 178.74 16.75
  A 3.14 3.13 5.9 0 0 181.81 14.26
  L 183.70 5.29
  A 1.70 1.69 5.9 0 0 182.04 3.25
  L 143.98 3.25
  A 2.84 2.84 0.0 0 0 141.20 5.51
  L 129.91 60.01
  A 1.66 1.65 -84.2 0 0 131.53 62.00
  L 170.27 62.00
  A 2.86 2.85 5.8 0 0 173.07 59.73
  L 174.97 50.55
  A 1.70 1.70 0.0 0 0 173.31 48.50
  L 147.96 48.50
  Q 147.42 48.50 147.53 47.97
  Z"
/>
<path fill="#009fe3" d="
  M 29.22 3.60
  L 17.48 60.28
  A 2.16 2.16 0.0 0 1 15.36 62.00
  L 4.13 62.00
  A 2.16 2.16 0.0 0 1 2.02 59.40
  L 13.76 2.72
  A 2.16 2.16 0.0 0 1 15.88 1.00
  L 27.11 1.00
  A 2.16 2.16 0.0 0 1 29.22 3.60
  Z"
/>
<path fill="#b4b4b2" d="
  M 285.61 36.15
  C 287.95 21.87 292.11 6.63 307.95 2.26
  C 317.23 -0.30 328.04 0.57 334.96 7.77
  Q 340.93 13.99 339.67 23.74
  C 337.47 40.70 333.29 58.63 313.99 62.24
  Q 303.06 64.28 294.56 59.65
  Q 282.82 53.25 285.61 36.15
  Z
  M 306.96 48.99
  C 319.36 50.90 322.53 37.85 323.86 28.24
  C 324.79 21.47 325.12 14.63 315.76 14.76
  Q 306.38 14.88 303.43 24.91
  C 301.46 31.64 296.34 47.37 306.96 48.99
  Z"
/>
<path fill="#009fe3" d="
  M 64.95 31.96
  L 70.86 3.85
  A 2.96 2.95 5.9 0 1 73.76 1.50
  L 84.80 1.50
  A 1.90 1.89 -84.1 0 1 86.65 3.79
  L 74.88 59.72
  A 2.87 2.87 0.0 0 1 72.07 62.00
  L 64.99 62.00
  A 3.51 3.50 -13.3 0 1 61.86 60.08
  L 47.15 31.08
  A 0.25 0.24 37.4 0 0 46.69 31.14
  L 40.67 59.82
  A 2.74 2.73 5.8 0 1 37.99 62.00
  L 27.00 62.00
  Q 24.43 62.01 24.96 59.49
  L 36.73 3.63
  A 2.69 2.68 6.0 0 1 39.36 1.50
  L 46.72 1.50
  A 3.13 3.13 0.0 0 1 49.51 3.21
  L 64.24 32.05
  Q 64.73 33.01 64.95 31.96
  Z"
/>
<path fill="#b4b4b2" d="
  M 272.12 23.57
  C 271.33 19.50 270.13 16.06 265.49 15.52
  C 253.30 14.09 251.03 21.93 248.74 31.78
  Q 247.27 38.08 247.22 42.01
  C 247.11 50.77 258.54 50.47 263.76 46.91
  C 265.76 45.54 267.16 43.15 268.44 41.09
  A 2.27 2.24 15.4 0 1 270.34 40.03
  L 281.61 40.00
  A 1.42 1.42 0.0 0 1 283.01 41.72
  C 280.75 52.25 271.98 60.05 261.49 62.08
  C 252.53 63.81 242.99 62.75 236.68 55.81
  C 229.38 47.77 232.28 36.87 234.58 27.36
  C 238.20 12.47 246.73 2.18 263.20 1.89
  Q 269.70 1.77 274.64 3.65
  C 282.42 6.61 288.89 14.47 286.79 23.07
  A 1.88 1.87 -83.1 0 1 284.97 24.50
  L 273.25 24.50
  A 1.15 1.15 0.0 0 1 272.12 23.57
  Z"
/>
<path fill="#b4b4b2" d="
  M 358.23 32.26
  L 352.54 59.52
  A 3.12 3.12 0.0 0 1 349.49 62.00
  L 339.27 62.00
  Q 336.53 62.00 337.08 59.31
  L 348.60 3.92
  A 2.73 2.72 5.8 0 1 351.27 1.75
  L 361.56 1.75
  A 2.99 2.98 -8.4 0 1 364.42 3.87
  L 371.45 27.26
  A 0.34 0.34 0.0 0 0 372.05 27.35
  Q 380.30 15.66 388.63 3.90
  Q 389.99 1.99 392.49 1.92
  Q 399.01 1.73 404.96 1.73
  A 1.92 1.91 -84.2 0 1 406.83 4.03
  L 395.25 59.76
  A 2.82 2.81 -84.1 0 1 392.50 62.00
  L 381.42 62.00
  A 1.74 1.74 0.0 0 1 379.72 59.91
  L 385.59 31.84
  A 0.13 0.13 0.0 0 0 385.35 31.74
  Q 381.36 37.52 377.39 43.40
  Q 375.70 45.90 374.07 47.20
  Q 373.70 47.50 373.22 47.50
  L 365.28 47.51
  A 2.74 2.73 81.7 0 1 362.66 45.55
  L 358.76 32.24
  Q 358.45 31.19 358.23 32.26
  Z"
/>
<path fill="#b4b4b2" d="
  M 508.00 2.54
  L 508.00 11.36
  L 488.79 33.04
  Q 488.48 33.38 488.69 33.79
  L 501.26 59.32
  A 1.86 1.85 -13.2 0 1 499.60 61.99
  L 486.80 62.01
  A 2.73 2.72 -13.2 0 1 484.36 60.50
  L 477.15 46.00
  A 0.38 0.38 0.0 0 0 476.53 45.92
  L 462.92 60.85
  A 3.54 3.53 21.2 0 1 460.31 62.00
  L 404.77 62.00
  A 1.86 1.86 0.0 0 1 402.95 59.76
  L 414.38 4.69
  A 2.75 2.74 -84.0 0 1 417.06 2.51
  Q 432.00 2.49 447.32 2.49
  C 451.27 2.49 457.13 1.53 462.03 2.12
  Q 466.63 2.67 471.24 2.48
  A 2.86 2.86 0.0 0 1 473.92 4.06
  L 481.15 18.57
  Q 481.45 19.16 481.88 18.66
  L 494.84 3.87
  A 3.99 3.99 0.0 0 1 497.83 2.52
  L 508.00 2.54
  Z
  M 449.40 25.26
  A 1.49 1.48 6.0 0 1 450.86 27.05
  L 448.87 36.63
  A 2.99 2.98 -84.0 0 1 445.95 39.00
  L 423.21 39.00
  A 0.84 0.84 0.0 0 0 422.39 39.67
  L 420.78 47.75
  Q 420.66 48.31 421.24 48.32
  L 446.66 48.43
  A 1.86 1.85 6.1 0 1 448.47 50.66
  L 447.46 55.48
  Q 447.29 56.31 447.86 55.68
  L 469.76 31.50
  Q 469.96 31.27 469.82 31.00
  L 457.63 6.23
  Q 457.20 5.35 457.00 6.31
  L 455.37 13.87
  A 2.71 2.71 0.0 0 1 452.72 16.01
  L 427.72 16.01
  A 0.59 0.58 -83.9 0 0 427.15 16.48
  L 425.49 24.69
  Q 425.37 25.24 425.94 25.24
  L 449.40 25.26
  Z"
/>
<path fill="#009fe3" d="
  M 195.31 42.03
  L 191.53 59.86
  A 2.70 2.69 5.9 0 1 188.89 62.00
  L 177.53 62.00
  A 1.66 1.65 6.0 0 1 175.91 60.01
  L 187.66 4.25
  A 2.49 2.48 -84.3 0 1 190.08 2.27
  Q 202.25 2.17 213.99 2.39
  C 220.88 2.53 228.38 5.33 231.51 11.64
  C 235.69 20.08 231.34 31.00 224.08 36.14
  C 222.96 36.93 221.16 37.74 219.70 38.59
  Q 219.21 38.88 219.38 39.42
  L 225.42 59.08
  A 2.27 2.26 -8.5 0 1 223.25 62.00
  L 212.30 62.00
  A 2.83 2.82 -8.3 0 1 209.59 59.98
  L 204.21 42.02
  Q 204.05 41.50 203.51 41.50
  L 195.97 41.50
  Q 195.42 41.50 195.31 42.03
  Z
  M 216.51 23.52
  C 221.44 13.44 205.81 15.35 201.27 15.56
  Q 200.82 15.58 200.73 16.02
  L 198.38 27.33
  Q 198.25 27.94 198.87 27.96
  C 204.37 28.16 213.58 29.54 216.51 23.52
  Z"
/>
<path fill="#009fe3" d="
  M 103.77 16.25
  L 89.44 16.25
  A 1.70 1.70 0.0 0 1 87.78 14.19
  L 89.76 5.08
  A 2.96 2.95 -83.7 0 1 92.66 2.75
  L 137.51 2.76
  A 1.71 1.70 5.9 0 1 139.18 4.81
  L 137.13 14.41
  A 2.32 2.32 0.0 0 1 134.86 16.25
  L 120.26 16.25
  Q 119.76 16.25 119.66 16.73
  L 110.65 59.64
  A 2.96 2.96 0.0 0 1 107.75 62.00
  L 97.51 62.00
  Q 94.70 62.00 95.28 59.25
  L 104.19 16.76
  Q 104.30 16.25 103.77 16.25
  Z"
/>
<path fill="#009fe3" d="
  M 147.96 48.50
  L 173.31 48.50
  A 1.70 1.70 0.0 0 1 174.97 50.55
  L 173.07 59.73
  A 2.86 2.85 5.8 0 1 170.27 62.00
  L 131.53 62.00
  A 1.66 1.65 -84.2 0 1 129.91 60.01
  L 141.20 5.51
  A 2.84 2.84 0.0 0 1 143.98 3.25
  L 182.04 3.25
  A 1.70 1.69 5.9 0 1 183.70 5.29
  L 181.81 14.26
  A 3.14 3.13 5.9 0 1 178.74 16.75
  L 154.47 16.75
  Q 153.93 16.75 153.82 17.29
  L 152.20 25.17
  Q 152.08 25.75 152.67 25.75
  L 175.57 25.75
  A 1.72 1.71 6.0 0 1 177.25 27.82
  L 175.39 36.71
  A 3.19 3.19 0.0 0 1 172.27 39.25
  L 149.76 39.25
  Q 149.27 39.25 149.17 39.74
  L 147.53 47.97
  Q 147.42 48.50 147.96 48.50
  Z"
/>
<path fill="#2d2d83" d="
  M 449.40 25.26
  L 425.94 25.24
  Q 425.37 25.24 425.49 24.69
  L 427.15 16.48
  A 0.59 0.58 -83.9 0 1 427.72 16.01
  L 452.72 16.01
  A 2.71 2.71 0.0 0 0 455.37 13.87
  L 457.00 6.31
  Q 457.20 5.35 457.63 6.23
  L 469.82 31.00
  Q 469.96 31.27 469.76 31.50
  L 447.86 55.68
  Q 447.29 56.31 447.46 55.48
  L 448.47 50.66
  A 1.86 1.85 6.1 0 0 446.66 48.43
  L 421.24 48.32
  Q 420.66 48.31 420.78 47.75
  L 422.39 39.67
  A 0.84 0.84 0.0 0 1 423.21 39.00
  L 445.95 39.00
  A 2.99 2.98 -84.0 0 0 448.87 36.63
  L 450.86 27.05
  A 1.49 1.48 6.0 0 0 449.40 25.26
  Z"
/>
<path fill="#ffffff" d="
  M 323.86 28.24
  C 322.53 37.85 319.36 50.90 306.96 48.99
  C 296.34 47.37 301.46 31.64 303.43 24.91
  Q 306.38 14.88 315.76 14.76
  C 325.12 14.63 324.79 21.47 323.86 28.24
  Z"
/>
<path fill="#ffffff" d="
  M 216.51 23.52
  C 213.58 29.54 204.37 28.16 198.87 27.96
  Q 198.25 27.94 198.38 27.33
  L 200.73 16.02
  Q 200.82 15.58 201.27 15.56
  C 205.81 15.35 221.44 13.44 216.51 23.52
  Z"
/>
</svg>
